<svg width="256" height="256" viewBox="0 0 256 256" fill="none" xmlns="http://www.w3.org/2000/svg">
  <!-- Background -->
  <rect width="256" height="256" rx="60" fill="#0f172a"/>
  
  <!-- Cloud Icon -->
  <path d="M128 80C110.327 80 96 94.3269 96 112C96 112.337 96.0067 112.672 96.0199 113.006C86.7067 116.67 80 125.635 80 136C80 149.255 90.7452 160 104 160H152C165.255 160 176 149.255 176 136C176 125.635 169.293 116.67 160.98 113.006C160.993 112.672 161 112.337 161 112C161 94.3269 146.673 80 129 80C128.667 80 128.335 80.0067 128.003 80.0199C128.002 80.013 128 80.0065 128 80Z" 
        fill="#3b82f6" 
        opacity="0.2"/>
  
  <!-- Sync Arrows -->
  <g stroke="#3b82f6" stroke-width="6" fill="none" stroke-linecap="round" stroke-linejoin="round">
    <!-- Upload Arrow -->
    <path d="M110 140L110 110M110 110L100 120M110 110L120 120"/>
    <!-- Download Arrow -->
    <path d="M146 120L146 150M146 150L136 140M146 150L156 140"/>
  </g>
  
  <!-- Accent Circle -->
  <circle cx="128" cy="128" r="70" stroke="#3b82f6" stroke-width="2" opacity="0.3" fill="none"/>
</svg>
